<?xml version="1.0" encoding="utf-8"?>
<!-- Generator: Adobe Illustrator 27.4.1, SVG Export Plug-In . SVG Version: 6.00 Build 0)  -->
<svg version="1.1" id="Layer_1" xmlns="http://www.w3.org/2000/svg" xmlns:xlink="http://www.w3.org/1999/xlink" x="0px" y="0px"
	 viewBox="0 0 400 400" enable-background="new 0 0 400 400" xml:space="preserve">
	 <style type="text/css">
	 	#changecolor{
	 		fill: #000;
	 	}

			 @media (prefers-color-scheme: dark) {
		#changecolor{
			fill: #fff !important;
		}
	 }

	 </style>
<g>
	<g>
		<g>
			<polygon fill="#3D6D4C" points="199.468,302.65 77.062,231.979 77.062,230.372 199.468,159.701 200.395,159.701 322.8,230.372 
				322.8,231.979 200.395,302.65 			"/>
		</g>
	</g>
</g>
<g>
	<g>
		<path fill="none" stroke="#000000" stroke-width="1.433" stroke-miterlimit="10" d="M199.931,160.505"/>
	</g>
</g>
<g>
	<g>
		<path fill="none" stroke="#000000" stroke-width="1.433" stroke-miterlimit="10" d="M199.931,3.307"/>
	</g>
</g>
<g>
	<g>
		<path fill="none" stroke="#000000" stroke-width="1.433" stroke-miterlimit="10" d="M199.931,160.505"/>
	</g>
</g>
<g>
	<g>
		<path fill="none" stroke="#000000" stroke-width="1.433" stroke-miterlimit="10" d="M63.794,239.104"/>
	</g>
</g>
<g>
	<g>
		<path fill="none" stroke="#000000" stroke-width="1.433" stroke-miterlimit="10" d="M199.931,160.505"/>
	</g>
</g>
<g>
	<g>
		<path fill="none" stroke="#000000" stroke-width="1.433" stroke-miterlimit="10" d="M336.069,239.104"/>
	</g>
</g>
<g id="changecolor">
	<path d="M51.767,369.81c0-7.719,6.148-10.042,13.389-10.998c6.558-0.82,8.88-1.503,8.88-3.894c0-2.254-1.434-3.757-4.782-3.757
		c-3.552,0-5.328,1.571-5.67,4.508H53.338c0.274-6.489,5.26-12.023,15.848-12.023c5.26,0,8.812,0.956,11.339,2.869
		c3.006,2.186,4.44,5.602,4.44,9.974v17.624c0,2.801,0.273,4.372,1.229,4.987v0.478H75.403c-0.546-0.751-0.888-2.118-1.161-3.893
		h-0.136c-2.049,2.937-5.123,4.782-10.383,4.782C56.754,380.466,51.767,376.709,51.767,369.81z M74.31,367.077v-4.167
		c-1.435,0.751-3.484,1.298-5.738,1.845c-4.304,0.956-6.08,2.049-6.08,4.714c0,2.801,2.049,3.893,4.782,3.893
		C71.441,373.362,74.31,370.834,74.31,367.077z"/>
	<path d="M89.064,330.736h11.271v48.842H89.064V330.736z"/>
	<path d="M104.434,330.736h11.271v48.842h-11.271V330.736z"/>
	<path d="M118.164,362.159c0-10.52,7.514-18.512,18.717-18.512c11.271,0,18.649,7.992,18.649,18.512
		c0,10.52-7.378,18.512-18.649,18.512C125.678,380.671,118.164,372.679,118.164,362.159z M144.258,362.159
		c0-6.353-2.596-10.656-7.446-10.656c-4.85,0-7.378,4.304-7.378,10.656c0,6.353,2.527,10.588,7.378,10.588
		C141.662,372.747,144.258,368.512,144.258,362.159z"/>
	<path d="M157.92,344.603h10.656v4.987h0.205c2.186-3.62,5.534-6.011,10.588-6.011c4.577,0,8.061,2.391,9.837,6.148h0.137
		c2.732-4.235,6.489-6.148,10.998-6.148c7.924,0,11.886,5.396,11.886,13.252v22.747h-11.135v-20.766
		c0-3.757-1.571-5.943-4.918-5.943c-3.552,0-5.534,2.938-5.534,7.105v19.605h-11.134v-20.766c0-3.757-1.571-5.943-4.918-5.943
		c-3.484,0-5.533,2.938-5.533,7.105v19.605H157.92V344.603z"/>
	<path d="M214.344,362.023c0-10.451,7.309-18.444,17.965-18.444c4.987,0,8.949,1.639,11.954,4.372
		c4.167,3.825,6.216,9.905,6.148,17.009h-25.138c0.683,4.714,3.279,7.651,7.856,7.651c2.937,0,4.85-1.297,5.806-3.484h10.861
		c-0.751,3.143-2.8,6.148-5.875,8.266c-2.937,2.049-6.489,3.21-10.929,3.21C221.448,380.603,214.344,372.61,214.344,362.023z
		 M239.14,358.334c-0.41-4.167-3.006-6.831-6.626-6.831c-4.235,0-6.421,2.664-7.172,6.831H239.14z"/>
	<path d="M254.852,370.356v-18.785h-4.645v-6.968h4.645v-11.066h10.862v11.066h6.353v6.968h-6.353v16.394
		c0,2.732,1.502,3.416,3.893,3.416c0.956,0,2.049-0.068,2.459-0.068v8.129c-0.956,0.273-3.074,0.547-6.08,0.547
		C259.498,379.988,254.852,377.87,254.852,370.356z"/>
	<path d="M274.731,344.603h10.656v5.465h0.205c2.459-4.167,5.328-6.012,9.563-6.012c1.025,0,1.708,0.068,2.186,0.274v9.563h-0.273
		c-6.831-0.956-11.203,2.391-11.203,9.973v15.712h-11.135V344.603z"/>
	<g>
		<path d="M299.527,330.736h11.135v9.017h-11.135V330.736z M299.527,344.603h11.135v34.975h-11.135V344.603z"/>
	</g>
	<g>
		<path d="M313.053,362.159c0-10.52,7.241-18.512,18.307-18.512c9.495,0,15.575,5.533,16.599,13.389h-10.725
			c-0.683-3.142-2.596-5.191-5.738-5.191c-4.782,0-7.173,3.962-7.173,10.315c0,6.216,2.391,10.178,7.173,10.178
			c3.484,0,5.601-2.049,6.08-6.012h10.656c-0.273,8.061-6.694,14.345-16.599,14.345
			C320.362,380.671,313.053,372.679,313.053,362.159z"/>
	</g>
	<path d="M323.383,88.022L200.977,17.351l-1.046-0.604l-1.046,0.604L76.48,88.022l-1.046,0.604v1.208v141.341v1.208l1.046,0.604
		l122.406,70.671l1.046,0.604l1.046-0.604l122.406-70.671l1.046-0.604v-1.208V89.834v-1.208L323.383,88.022z M199.931,301.846
		L77.526,231.176l122.405-70.671l122.405,70.671L199.931,301.846z M322.337,229.033l-121.478-70.135h-1.855L77.526,229.033V89.834
		l122.405-70.671l122.405,70.671V229.033z"/>
	<polygon points="254.359,122.144 254.359,91.621 199.931,60.197 145.503,91.621 145.503,122.144 119.07,137.405 119.07,184.991 
		160.281,208.784 171.937,202.055 171.937,244.65 199.931,260.812 227.926,244.65 227.926,202.055 239.582,208.784 280.792,184.991 
		280.792,137.405 	"/>
</g>
<g>
	<g>
		<g>
			<g>
				<polygon fill="#462918" points="173.563,165.499 199.899,150.294 199.899,180.704 				"/>
			</g>
		</g>
	</g>
	<g>
		<g>
			<g>
				<path d="M199.866,150.351v30.298l-26.238-15.149L199.866,150.351 M199.931,150.238l-26.434,15.261l26.434,15.261V150.238
					L199.931,150.238z"/>
			</g>
		</g>
	</g>
</g>
<g>
	<g>
		<g>
			<g>
				<polygon fill="#462918" points="199.964,150.294 226.3,165.499 199.964,180.704 				"/>
			</g>
		</g>
	</g>
	<g>
		<g>
			<g>
				<path d="M199.996,150.351l26.238,15.149l-26.238,15.149V150.351 M199.931,150.238v30.523l26.434-15.261L199.931,150.238
					L199.931,150.238z"/>
			</g>
		</g>
	</g>
</g>
<g>
	<g>
		<g>
			<g>
				<polygon fill="#825539" points="173.514,243.721 173.53,165.556 199.915,180.789 199.899,258.954 				"/>
			</g>
		</g>
	</g>
	<g>
		<g>
			<g>
				<path d="M173.563,165.612l26.303,15.186v78.1l-26.303-15.186V165.612 M173.498,165.499v78.25l26.434,15.261v-78.25
					L173.498,165.499L173.498,165.499z"/>
			</g>
		</g>
	</g>
</g>
<g>
	<g>
		<g>
			<g>
				<polygon fill="#633722" points="199.964,180.761 226.333,165.556 226.333,243.749 199.964,258.954 				"/>
			</g>
		</g>
	</g>
	<g>
		<g>
			<g>
				<path d="M226.3,165.612v78.1l-26.303,15.186v-78.1L226.3,165.612 M226.365,165.499l-26.434,15.261v78.25l26.434-15.261V165.499
					L226.365,165.499z"/>
			</g>
		</g>
	</g>
</g>
<g>
	<g>
		<g>
			<g>
				<polygon fill="#3D6D4C" points="147.129,92.522 199.948,62.027 252.733,92.522 199.931,123.007 				"/>
			</g>
		</g>
	</g>
	<g>
		<g>
			<g>
				<path d="M199.931,62.074l52.737,30.448l-52.737,30.448l-52.737-30.448L199.931,62.074 M199.931,61.999l-52.867,30.523
					l52.867,30.523l52.867-30.523L199.931,61.999L199.931,61.999z"/>
			</g>
		</g>
	</g>
</g>
<g>
	<g>
		<g>
			<g>
				<polygon fill="#417954" points="147.08,153.54 147.096,92.578 199.915,123.073 199.899,184.034 				"/>
			</g>
		</g>
	</g>
	<g>
		<g>
			<g>
				<path d="M147.129,92.635l52.737,30.448v60.896l-52.737-30.448V92.635 M147.064,92.522v61.046l52.867,30.523v-61.046
					L147.064,92.522L147.064,92.522z"/>
			</g>
		</g>
	</g>
</g>
<g>
	<g>
		<g>
			<g>
				<polygon fill="#334B3B" points="199.964,123.045 252.766,92.578 252.766,153.568 199.964,184.034 				"/>
			</g>
		</g>
	</g>
	<g>
		<g>
			<g>
				<path d="M252.733,92.635v60.896l-52.737,30.448v-60.896L252.733,92.635 M252.799,92.522l-52.867,30.523v61.046l52.867-30.523
					V92.522L252.799,92.522z"/>
			</g>
		</g>
	</g>
</g>
<g>
	<g>
		<g>
			<g>
				<polygon fill="#4C814D" points="120.696,138.306 160.297,115.442 199.867,138.306 160.281,161.161 				"/>
			</g>
		</g>
	</g>
	<g>
		<g>
			<g>
				<path d="M160.281,115.489l39.52,22.817l-39.52,22.817l-39.52-22.817L160.281,115.489 M160.281,115.414l-39.65,22.892
					l39.65,22.892l39.65-22.892L160.281,115.414L160.281,115.414z"/>
			</g>
		</g>
	</g>
</g>
<g>
	<g>
		<g>
			<g>
				<polygon fill="#529054" points="120.647,184.062 120.663,138.362 160.265,161.226 160.249,206.927 				"/>
			</g>
		</g>
	</g>
	<g>
		<g>
			<g>
				<path d="M120.696,138.419l39.52,22.817v45.634l-39.52-22.817V138.419 M120.631,138.306v45.784l39.65,22.892v-45.784
					L120.631,138.306L120.631,138.306z"/>
			</g>
		</g>
	</g>
</g>
<g>
	<g>
		<g>
			<g>
				<polygon fill="#375337" points="160.314,161.198 199.899,138.362 199.899,184.09 160.314,206.927 				"/>
			</g>
		</g>
	</g>
	<g>
		<g>
			<g>
				<path d="M199.866,138.419v45.634l-39.52,22.817v-45.634L199.866,138.419 M199.931,138.306l-39.65,22.892v45.784l39.65-22.892
					V138.306L199.931,138.306z"/>
			</g>
		</g>
	</g>
</g>
<g>
	<g>
		<g>
			<g>
				<polygon fill="#2F4B41" points="199.996,138.306 239.598,115.442 279.167,138.306 239.582,161.161 				"/>
			</g>
		</g>
	</g>
	<g>
		<g>
			<g>
				<path d="M239.582,115.489l39.52,22.817l-39.52,22.817l-39.52-22.817L239.582,115.489 M239.582,115.414l-39.65,22.892
					l39.65,22.892l39.65-22.892L239.582,115.414L239.582,115.414z"/>
			</g>
		</g>
	</g>
</g>
<g>
	<g>
		<g>
			<g>
				<polygon fill="#314F45" points="199.948,184.062 199.964,138.362 239.565,161.226 239.549,206.927 				"/>
			</g>
		</g>
	</g>
	<g>
		<g>
			<g>
				<path d="M199.996,138.419l39.52,22.817v45.634l-39.52-22.817V138.419 M199.931,138.306v45.784l39.65,22.892v-45.784
					L199.931,138.306L199.931,138.306z"/>
			</g>
		</g>
	</g>
</g>
<g>
	<g>
		<g>
			<g>
				<polygon fill="#191D1B" points="239.614,161.198 279.2,138.362 279.2,184.09 239.614,206.927 				"/>
			</g>
		</g>
	</g>
	<g>
		<g>
			<g>
				<path d="M279.167,138.419v45.634l-39.52,22.817v-45.634L279.167,138.419 M279.232,138.306l-39.65,22.892v45.784l39.65-22.892
					V138.306L279.232,138.306z"/>
			</g>
		</g>
	</g>
</g>
</svg>
