<?xml version="1.0" encoding="utf-8"?>
<!-- Generator: Adobe Illustrator 27.4.1, SVG Export Plug-In . SVG Version: 6.00 Build 0)  -->
<svg version="1.1" id="Layer_1" xmlns="http://www.w3.org/2000/svg" xmlns:xlink="http://www.w3.org/1999/xlink" x="0px" y="0px"
	 viewBox="0 0 400 400" style="enable-background:new 0 0 400 400;" xml:space="preserve">
<style type="text/css">
	.st0{fill:#3D6D4C;}
	.st1{fill:none;stroke:#000000;stroke-width:1.433;stroke-miterlimit:10;}
	.st2{fill:#FFFFFF;}
	.st3{fill:#462918;}
	.st4{fill:#825539;}
	.st5{fill:#633722;}
	.st6{fill:#417954;}
	.st7{fill:#334B3B;}
	.st8{fill:#4C814D;}
	.st9{fill:#529054;}
	.st10{fill:#375337;}
	.st11{fill:#2F4B41;}
	.st12{fill:#314F45;}
	.st13{fill:#191D1B;}
</style>
<g>
	<g>
		<g>
			<polygon class="st0" points="199.5,302.6 77.1,232 77.1,230.4 199.5,159.7 200.4,159.7 322.8,230.4 322.8,232 200.4,302.6 			"/>
		</g>
	</g>
</g>
<g>
	<g>
		<path class="st1" d="M199.9,160.5"/>
	</g>
</g>
<g>
	<g>
		<path class="st1" d="M199.9,3.3"/>
	</g>
</g>
<g>
	<g>
		<path class="st1" d="M199.9,160.5"/>
	</g>
</g>
<g>
	<g>
		<path class="st1" d="M63.8,239.1"/>
	</g>
</g>
<g>
	<g>
		<path class="st1" d="M199.9,160.5"/>
	</g>
</g>
<g>
	<g>
		<path class="st1" d="M336.1,239.1"/>
	</g>
</g>
<g id="changecolor">
	<path class="st2" d="M51.8,369.8c0-7.7,6.1-10,13.4-11c6.6-0.8,8.9-1.5,8.9-3.9c0-2.3-1.4-3.8-4.8-3.8c-3.6,0-5.3,1.6-5.7,4.5H53.3
		c0.3-6.5,5.3-12,15.8-12c5.3,0,8.8,1,11.3,2.9c3,2.2,4.4,5.6,4.4,10v17.6c0,2.8,0.3,4.4,1.2,5v0.5H75.4c-0.5-0.8-0.9-2.1-1.2-3.9
		h-0.1c-2,2.9-5.1,4.8-10.4,4.8C56.8,380.5,51.8,376.7,51.8,369.8z M74.3,367.1v-4.2c-1.4,0.8-3.5,1.3-5.7,1.8c-4.3,1-6.1,2-6.1,4.7
		c0,2.8,2,3.9,4.8,3.9C71.4,373.4,74.3,370.8,74.3,367.1z"/>
	<path class="st2" d="M89.1,330.7h11.3v48.8H89.1V330.7z"/>
	<path class="st2" d="M104.4,330.7h11.3v48.8h-11.3C104.4,379.6,104.4,330.7,104.4,330.7z"/>
	<path class="st2" d="M118.2,362.2c0-10.5,7.5-18.5,18.7-18.5c11.3,0,18.6,8,18.6,18.5s-7.4,18.5-18.6,18.5
		C125.7,380.7,118.2,372.7,118.2,362.2z M144.3,362.2c0-6.4-2.6-10.7-7.4-10.7s-7.4,4.3-7.4,10.7c0,6.4,2.5,10.6,7.4,10.6
		C141.7,372.7,144.3,368.5,144.3,362.2z"/>
	<path class="st2" d="M157.9,344.6h10.7v5h0.2c2.2-3.6,5.5-6,10.6-6c4.6,0,8.1,2.4,9.8,6.1h0.1c2.7-4.2,6.5-6.1,11-6.1
		c7.9,0,11.9,5.4,11.9,13.3v22.7h-11.1v-20.8c0-3.8-1.6-5.9-4.9-5.9c-3.6,0-5.5,2.9-5.5,7.1v19.6h-11.1v-20.8c0-3.8-1.6-5.9-4.9-5.9
		c-3.5,0-5.5,2.9-5.5,7.1v19.6h-11.1V344.6z"/>
	<path class="st2" d="M214.3,362c0-10.5,7.3-18.4,18-18.4c5,0,8.9,1.6,12,4.4c4.2,3.8,6.2,9.9,6.1,17h-25.1c0.7,4.7,3.3,7.7,7.9,7.7
		c2.9,0,4.9-1.3,5.8-3.5h10.9c-0.8,3.1-2.8,6.1-5.9,8.3c-2.9,2-6.5,3.2-10.9,3.2C221.4,380.6,214.3,372.6,214.3,362z M239.1,358.3
		c-0.4-4.2-3-6.8-6.6-6.8c-4.2,0-6.4,2.7-7.2,6.8H239.1z"/>
	<path class="st2" d="M254.9,370.4v-18.8h-4.6v-7h4.6v-11.1h10.9v11.1h6.4v7h-6.4V368c0,2.7,1.5,3.4,3.9,3.4c1,0,2-0.1,2.5-0.1v8.1
		c-1,0.3-3.1,0.5-6.1,0.5C259.5,380,254.9,377.9,254.9,370.4z"/>
	<path class="st2" d="M274.7,344.6h10.7v5.5h0.2c2.5-4.2,5.3-6,9.6-6c1,0,1.7,0.1,2.2,0.3v9.6h-0.3c-6.8-1-11.2,2.4-11.2,10v15.7
		h-11.1L274.7,344.6L274.7,344.6z"/>
	<g>
		<path class="st2" d="M299.5,330.7h11.1v9h-11.1V330.7z M299.5,344.6h11.1v35h-11.1V344.6z"/>
	</g>
	<g>
		<path class="st2" d="M313.1,362.2c0-10.5,7.2-18.5,18.3-18.5c9.5,0,15.6,5.5,16.6,13.4h-10.7c-0.7-3.1-2.6-5.2-5.7-5.2
			c-4.8,0-7.2,4-7.2,10.3c0,6.2,2.4,10.2,7.2,10.2c3.5,0,5.6-2,6.1-6h10.7c-0.3,8.1-6.7,14.3-16.6,14.3
			C320.4,380.7,313.1,372.7,313.1,362.2z"/>
	</g>
	<path class="st2" d="M323.4,88L201,17.4l-1-0.6l-1,0.6L76.5,88l-1,0.6v1.2v141.3v1.2l1,0.6l122.4,70.7l1,0.6l1-0.6L323.4,233l1-0.6
		v-1.2V89.8v-1.2L323.4,88z M199.9,301.8L77.5,231.2l122.4-70.7l122.4,70.7L199.9,301.8z M322.3,229l-121.5-70.1H199L77.5,229V89.8
		l122.4-70.7l122.4,70.7L322.3,229L322.3,229z"/>
	<polygon class="st2" points="254.4,122.1 254.4,91.6 199.9,60.2 145.5,91.6 145.5,122.1 119.1,137.4 119.1,185 160.3,208.8 
		171.9,202.1 171.9,244.6 199.9,260.8 227.9,244.6 227.9,202.1 239.6,208.8 280.8,185 280.8,137.4 	"/>
</g>
<g>
	<g>
		<g>
			<g>
				<polygon class="st3" points="173.6,165.5 199.9,150.3 199.9,180.7 				"/>
			</g>
		</g>
	</g>
	<g>
		<g>
			<g>
				<path class="st2" d="M199.9,150.4v30.3l-26.2-15.1L199.9,150.4 M199.9,150.2l-26.4,15.3l26.4,15.3V150.2L199.9,150.2z"/>
			</g>
		</g>
	</g>
</g>
<g>
	<g>
		<g>
			<g>
				<polygon class="st3" points="200,150.3 226.3,165.5 200,180.7 				"/>
			</g>
		</g>
	</g>
	<g>
		<g>
			<g>
				<path class="st2" d="M200,150.4l26.2,15.1L200,180.6V150.4 M199.9,150.2v30.5l26.4-15.3L199.9,150.2L199.9,150.2z"/>
			</g>
		</g>
	</g>
</g>
<g>
	<g>
		<g>
			<g>
				<polygon class="st4" points="173.5,243.7 173.5,165.6 199.9,180.8 199.9,259 				"/>
			</g>
		</g>
	</g>
	<g>
		<g>
			<g>
				<path class="st2" d="M173.6,165.6l26.3,15.2v78.1l-26.3-15.2V165.6 M173.5,165.5v78.2l26.4,15.3v-78.2L173.5,165.5L173.5,165.5z
					"/>
			</g>
		</g>
	</g>
</g>
<g>
	<g>
		<g>
			<g>
				<polygon class="st5" points="200,180.8 226.3,165.6 226.3,243.7 200,259 				"/>
			</g>
		</g>
	</g>
	<g>
		<g>
			<g>
				<path class="st2" d="M226.3,165.6v78.1L200,258.9v-78.1L226.3,165.6 M226.4,165.5l-26.4,15.3V259l26.4-15.3V165.5L226.4,165.5z"
					/>
			</g>
		</g>
	</g>
</g>
<g>
	<g>
		<g>
			<g>
				<polygon class="st0" points="147.1,92.5 199.9,62 252.7,92.5 199.9,123 				"/>
			</g>
		</g>
	</g>
	<g>
		<g>
			<g>
				<path class="st2" d="M199.9,62.1l52.7,30.4L199.9,123l-52.7-30.4L199.9,62.1 M199.9,62l-52.9,30.5l52.9,30.5l52.9-30.5L199.9,62
					L199.9,62z"/>
			</g>
		</g>
	</g>
</g>
<g>
	<g>
		<g>
			<g>
				<polygon class="st6" points="147.1,153.5 147.1,92.6 199.9,123.1 199.9,184 				"/>
			</g>
		</g>
	</g>
	<g>
		<g>
			<g>
				<path class="st2" d="M147.1,92.6l52.7,30.4V184l-52.7-30.4V92.6 M147.1,92.5v61l52.9,30.5v-61L147.1,92.5L147.1,92.5z"/>
			</g>
		</g>
	</g>
</g>
<g>
	<g>
		<g>
			<g>
				<polygon class="st7" points="200,123 252.8,92.6 252.8,153.6 200,184 				"/>
			</g>
		</g>
	</g>
	<g>
		<g>
			<g>
				<path class="st2" d="M252.7,92.6v60.9L200,184v-60.9L252.7,92.6 M252.8,92.5L199.9,123v61l52.9-30.5V92.5L252.8,92.5z"/>
			</g>
		</g>
	</g>
</g>
<g>
	<g>
		<g>
			<g>
				<polygon class="st8" points="120.7,138.3 160.3,115.4 199.9,138.3 160.3,161.2 				"/>
			</g>
		</g>
	</g>
	<g>
		<g>
			<g>
				<path class="st2" d="M160.3,115.5l39.5,22.8l-39.5,22.8l-39.5-22.8L160.3,115.5 M160.3,115.4l-39.7,22.9l39.7,22.9l39.6-22.9
					L160.3,115.4L160.3,115.4z"/>
			</g>
		</g>
	</g>
</g>
<g>
	<g>
		<g>
			<g>
				<polygon class="st9" points="120.6,184.1 120.7,138.4 160.3,161.2 160.2,206.9 				"/>
			</g>
		</g>
	</g>
	<g>
		<g>
			<g>
				<path class="st2" d="M120.7,138.4l39.5,22.8v45.6l-39.5-22.8V138.4 M120.6,138.3v45.8l39.7,22.9v-45.8L120.6,138.3L120.6,138.3z
					"/>
			</g>
		</g>
	</g>
</g>
<g>
	<g>
		<g>
			<g>
				<polygon class="st10" points="160.3,161.2 199.9,138.4 199.9,184.1 160.3,206.9 				"/>
			</g>
		</g>
	</g>
	<g>
		<g>
			<g>
				<path class="st2" d="M199.9,138.4v45.6l-39.5,22.8v-45.6L199.9,138.4 M199.9,138.3l-39.6,22.9V207l39.6-22.9V138.3L199.9,138.3z
					"/>
			</g>
		</g>
	</g>
</g>
<g>
	<g>
		<g>
			<g>
				<polygon class="st11" points="200,138.3 239.6,115.4 279.2,138.3 239.6,161.2 				"/>
			</g>
		</g>
	</g>
	<g>
		<g>
			<g>
				<path class="st2" d="M239.6,115.5l39.5,22.8l-39.5,22.8l-39.5-22.8L239.6,115.5 M239.6,115.4l-39.6,22.9l39.6,22.9l39.6-22.9
					L239.6,115.4L239.6,115.4z"/>
			</g>
		</g>
	</g>
</g>
<g>
	<g>
		<g>
			<g>
				<polygon class="st12" points="199.9,184.1 200,138.4 239.6,161.2 239.5,206.9 				"/>
			</g>
		</g>
	</g>
	<g>
		<g>
			<g>
				<path class="st2" d="M200,138.4l39.5,22.8v45.6L200,184.1V138.4 M199.9,138.3v45.8l39.6,22.9v-45.8L199.9,138.3L199.9,138.3z"/>
			</g>
		</g>
	</g>
</g>
<g>
	<g>
		<g>
			<g>
				<polygon class="st13" points="239.6,161.2 279.2,138.4 279.2,184.1 239.6,206.9 				"/>
			</g>
		</g>
	</g>
	<g>
		<g>
			<g>
				<path class="st2" d="M279.2,138.4v45.6l-39.5,22.8v-45.6L279.2,138.4 M279.2,138.3l-39.6,22.9V207l39.6-22.9V138.3L279.2,138.3z
					"/>
			</g>
		</g>
	</g>
</g>
</svg>
