<?xml version="1.0" encoding="UTF-8"?><svg id="uuid-5dce8c50-324e-4a84-8541-1ec3cf03ba8a" xmlns="http://www.w3.org/2000/svg" viewBox="0 0 808.4390848897 1029.0463717364"><defs><style>.uuid-e4472867-d31c-4883-9bff-7b69d2c446b2{fill:#825539;}.uuid-a5878eb3-f02b-43fa-9489-d98fa766f081{fill:#334b3b;}.uuid-5905494d-df6e-40b0-8da5-df9942cc2457{fill:#314f45;}.uuid-b8c1a4ca-0dd8-4757-bdd4-7adc7f4c053d{fill:#417954;}.uuid-5d35c1dc-54c8-4244-a6d6-a019031e6338{fill:#375337;}.uuid-f29dcbee-f1e6-4fb5-89c8-89295e40ac9a{fill:#191d1b;}.uuid-b6b3ae01-4d3f-4c0a-b852-2e0c3f0a764c{fill:#3d6d4c;}.uuid-a08b5f7a-8f51-4113-b39a-b498d48b49b0{fill:#462918;}.uuid-846e63f2-8259-4d5d-b5b2-25d07de3d527{fill:#529054;}.uuid-5414f45d-5846-4d44-b6ee-690c8c35d9b3{fill:#2f4b41;}.uuid-395753ef-def6-454e-89fd-3051829ebe7d{fill:#633722;}.uuid-75826f35-0277-4f54-b70e-c3e0f307dc81{fill:#4c814d;}</style></defs><g id="uuid-2d61078a-9355-4265-8e01-15ac6d2489aa"><path d="m0,999.4284493141c0-21.0498527349,16.7645185177-27.3829997862,36.5110995061-29.9908426528,17.8819798357-2.2362220097,24.2151268869-4.0982244152,24.2151268869-10.6184812685,0-6.1473366228-3.9111146131-10.2442616643-13.039214333-10.2442616643-9.6868303789,0-14.5295958816,4.2840348436-15.4612467712,12.2933738719H4.2840348436c.7458404611-17.6961694072,14.3437854531-32.7844959479,43.2171667879-32.7844959479,14.3424860795,0,24.0293164585,2.6078428666,30.9211941687,7.8235285998,8.1964488304,5.9615261943,12.1088628171,15.2754363427,12.1088628171,27.1971893577v48.0586329169c0,7.6377181714.7445410875,11.921753015,3.3523839541,13.597944992v1.3045711201h-29.4321119938c-1.489082175-2.0491122076-2.4207330645-5.7744163922-3.1665735256-10.6171818949h-.3716208569c-5.5886059638,8.0093390283-13.9708652226,13.039214333-28.3146506757,13.039214333-19.0007405273,0-32.5986855194-10.245561038-32.5986855194-29.0591917632Zm61.4720668541-7.4519077429v-11.363022356c-3.9124139867,2.0491122076-9.5010199505,3.5394937562-15.6470571996,5.0298753048-11.7359425865,2.6078428666-16.5787080892,5.5886059638-16.5787080892,12.8534039046,0,7.6377181714,5.5873065901,10.6171818949,13.039214333,10.6171818949,11.363022356,0,19.1865509558-6.8918777103,19.1865509558-17.1374387482Z"/><path d="m101.7058717976,892.8772132666h30.7353837403v133.1883953726h-30.7353837403v-133.1883953726Z"/><path d="m143.6171680918,892.8772132666h30.7353837403v133.1883953726h-30.7353837403v-133.1883953726Z"/><path d="m181.0586191139,978.5644070076c0-28.6862715327,20.4898227023-50.4806653551,51.0393960141-50.4806653551,30.7353837403,0,50.8535855856,21.7943938224,50.8535855856,50.4806653551,0,28.6875709063-20.1182018454,50.4819647287-50.8535855856,50.4819647287-30.5495733118,0-51.0393960141-21.7943938224-51.0393960141-50.4819647287Zm71.1575978595,0c0-17.3232491767-7.0789875123-29.0591917632-20.3040122738-29.0591917632-13.2263241351,0-20.1182018454,11.7359425865-20.1182018454,29.0591917632,0,17.3245485503,6.8918777103,28.8733813348,20.1182018454,28.8733813348,13.2250247615,0,20.3040122738-11.5488327845,20.3040122738-28.8733813348Z"/><path d="m289.4705581933,930.6915845192h29.0591917632v13.597944992h.558730659c5.9615261943-9.8726408074,15.0896259143-16.3915982871,28.8733813348-16.3915982871,12.480483674,0,21.9815036245,6.5189574797,26.8242691272,16.7645185177h.3729202306c7.4506083693-11.5488327845,17.6961694072-16.7645185177,29.9895432792-16.7645185177,21.608583394,0,32.4128750909,14.7154063101,32.4128750909,36.1368799019v62.0307975132h-30.3637628833v-56.6280019779c0-10.245561038-4.2840348436-16.2070872323-13.41083519-16.2070872323-9.6868303789,0-15.0896259143,8.0106384019-15.0896259143,19.3736607579v53.4614284522h-30.3624635097v-56.6280019779c0-10.245561038-4.2840348436-16.2070872323-13.4121345636-16.2070872323-9.4997205769,0-15.0883265406,8.0106384019-15.0883265406,19.3736607579v53.4614284522h-30.3637628833v-95.37402412Z"/><path d="m443.3345866967,978.1927861507c0-28.5004611042,19.9310920433-50.2948549266,48.9902838065-50.2948549266,13.5992443657,0,24.402236689,4.4698452721,32.5986855194,11.921753015,11.363022356,10.4313714664,16.9516283198,27.0100795556,16.7645185177,46.3824409399h-68.5497549929c1.8633017791,12.8534039046,8.9422892915,20.8627429328,21.4227729655,20.8627429328,8.0093390283,0,13.2250247615-3.5381943825,15.8328676281-9.4997205769h29.6179224222c-2.0491122076,8.5693690609-7.6364187977,16.7645185177-16.0199774302,22.5402342835-8.0093390283,5.5873065901-17.6961694072,8.7538801158-29.8037328507,8.7538801158-31.4812242014,0-50.8535855856-21.7943938224-50.8535855856-50.6664757835Zm67.6181041033-10.0597506095c-1.117461318-11.363022356-8.1964488304-18.6278202968-18.0690896378-18.6278202968-11.5488327845,0-17.5090596051,7.2647979408-19.5581718127,18.6278202968h37.6272614505Z"/><path d="m553.798236731,1000.9175314891v-51.2252064426h-12.6662941025v-19.0007405273h12.6662941025v-30.1766530812h29.6192217959v30.1766530812h17.3232491767v19.0007405273h-17.3232491767v44.7062489629c0,7.4506083693,4.0969250416,9.3139101484,10.6171818949,9.3139101484,2.6078428666,0,5.5886059638-.1858104285,6.7060672818-.1858104285v22.1660146793c-2.6078428666.7458404611-8.3822592588,1.4903815486-16.5787080892,1.4903815486-17.6961694072,0-30.3637628833-5.7744163922-30.3637628833-26.2655384681Z"/><path d="m608.0055056443,930.6915845192h29.0591917632v14.9025161122h.558730659c6.7060672818-11.363022356,14.5295958816-16.3928976607,26.0784286661-16.3928976607,2.7949526687,0,4.6569550742.1858104285,5.9615261943.7458404611v26.0784286661h-.7445410875c-18.6278202968-2.6078428666-30.5495733118,6.5189574797-30.5495733118,27.1958899841v42.8442465574h-30.3637628833v-95.37402412Z"/><path d="m675.6236097476,892.8772132666h30.3637628833v24.5880471175h-30.3637628833v-24.5880471175Zm0,37.8143712526h30.3637628833v95.37402412h-30.3637628833v-95.37402412Z"/><path d="m712.5063301107,978.5644070076c0-28.6862715327,19.7452816148-50.4806653551,49.9219346961-50.4806653551,25.8926182376,0,42.4713263268,15.0883265406,45.2649796219,36.5098001325h-29.2450021917c-1.8633017791-8.5680696873-7.0789875123-14.1566756511-15.6470571996-14.1566756511-13.039214333,0-19.5594711864,10.804291697-19.5594711864,28.1275408737,0,16.9516283198,6.5202568533,27.7559200167,19.5594711864,27.7559200167,9.4997205769,0,15.2741369691-5.5886059638,16.5787080892-16.3928976607h29.0591917632c-.7458404611,21.9815036245-18.2549000662,39.1189423727-45.2649796219,39.1189423727-30.7366831139,0-50.6677751572-21.7943938224-50.6677751572-50.4819647287Z"/><path d="m404.0324326428,43.239843057l333.7908931893,192.7142238655v385.4282040984l-333.7908931893,192.7142441682-333.7908931893-192.7142441682V235.9540669225L404.0324326428,43.239843057m0-6.5879257954l-2.8524499516,1.6470169786L67.3887646584,231.0131581057l-2.8524499516,1.6469966759v392.0160283802l2.8524499516,1.6470372813,333.7912180328,192.7142441682,2.8524499516,1.6469560705,2.8524499516-1.6469560705,333.7912180328-192.7142441682,2.8524499516-1.6470372813V232.6601547816l-2.8524499516-1.6469966759L406.8848825944,38.2989342402l-2.8524499516-1.6470169786h0Z"/><polygon class="uuid-b6b3ae01-4d3f-4c0a-b852-2e0c3f0a764c" points="402.768142105 816.2869342784 68.9772489157 623.5729337428 68.9772489157 619.1914458772 402.768142105 426.4774453416 405.2967231805 426.4774453416 739.0876163698 619.1914458772 739.0876163698 623.5729337428 405.2967231805 816.2869342784 402.768142105 816.2869342784"/><path d="m404.0324326428,428.668148669l333.7908931893,192.7142035627-166.8954465947,96.3570814787-166.8954465947,96.3571626895-166.8954465947-96.3571626895-166.8954465947-96.3570814787,333.7908931893-192.7142035627m2.5295556057-4.381528471h-5.0591112113l-333.7908931893,192.7141629573v8.7631381528l166.8954465947,96.3570002678,166.8954465947,96.3571626895h5.0591112113l166.8954465947-96.3571626895,166.8954465947-96.3570002678v-8.7631381528l-333.7908931893-192.7141629573h0Z"/><polygon points="327.694232138 658.1258771951 327.694232138 434.9188261004 404.0324326428 478.9916304208 480.3706331476 434.9188261004 480.3706331476 658.1258771951 404.0324326428 702.1993312023 327.694232138 658.1258771951"/><polygon points="399.7769840189 495.4410508342 399.7769840189 365.6778043387 512.1559107773 300.796181091 624.5348375357 365.6778043387 624.5348375357 495.4410508342 512.1559107773 560.3233237688 399.7769840189 495.4410508342"/><polygon points="183.5300277498 495.4410508342 183.5300277498 365.6778043387 295.9089545082 300.796181091 408.2878812666 365.6778043387 408.2878812666 495.4410508342 295.9089545082 560.3233237688 183.5300277498 495.4410508342"/><polygon points="255.6114802571 412.2077241851 255.6114802571 240.8274895216 404.0324326428 155.1370473465 552.4520856548 240.8274895216 552.4520856548 412.2077241851 404.0324326428 497.8975166735 255.6114802571 412.2077241851"/><polygon class="uuid-a08b5f7a-8f51-4113-b39a-b498d48b49b0" points="332.1263955749 442.2882236181 403.9440752362 400.8245615379 403.9440752362 483.7512360114 332.1263955749 442.2882236181"/><path d="m403.8550681429,400.9782530746v82.6194944273l-71.5503335378-41.3097675164,71.5503335378-41.3097269109m.1773644999-.3070582299l-72.0824270375,41.6167851408,72.0824270375,41.6168257463v-83.2336108871h0Z"/><polygon class="uuid-a08b5f7a-8f51-4113-b39a-b498d48b49b0" points="404.1207900493 400.8245615379 475.9384697106 442.2882236181 404.1207900493 483.7512360114 404.1207900493 400.8245615379"/><path d="m404.2097971427,400.9782530746l71.5503335378,41.3097269109-71.5503335378,41.3097675164v-82.6194944273m-.1773644999-.3070582299v83.2336108871l72.0824270375-41.6168257463-72.0824270375-41.6167851408h0Z"/><polygon class="uuid-e4472867-d31c-4883-9bff-7b69d2c446b2" points="331.9938594651 655.5920986252 332.0380381684 442.4415497059 403.9882539395 483.9812251431 403.9440752362 697.133073436 331.9938594651 655.5920986252"/><path d="m332.1273701052,442.5950382154l71.7276980377,41.4120931894v212.9719662566l-71.7276980377-41.4120119785v-212.9720474674m-.1773644999-.3070582299v213.3814313704l72.0824270375,41.6167445354v-213.3813907649l-72.0824270375-41.6167851408h0Z"/><polygon class="uuid-395753ef-def6-454e-89fd-3051829ebe7d" points="404.1207900493 483.9045620992 476.0268271171 442.4415497059 476.0268271171 655.6687616691 404.1207900493 697.133073436 404.1207900493 483.9045620992"/><path d="m475.9374951804,442.5950382154v212.9720474674l-71.7276980377,41.4120119785v-212.9719662566l71.7276980377-41.4120931894m.1773644999-.3070582299l-72.0824270375,41.6167851408v213.3813907649l72.0824270375-41.6167445354v-213.3814313704h0Z"/><polygon class="uuid-b6b3ae01-4d3f-4c0a-b852-2e0c3f0a764c" points="260.043643694 243.2839553609 404.076611346 160.1266420689 548.0199222179 243.2839553609 404.0324326428 326.4146314936 260.043643694 243.2839553609"/><path d="m404.0324326428,160.2548740035l143.8101250752,83.0289189356-143.8101250752,83.0289595411-143.8101250752-83.0289595411,143.8101250752-83.0289189356m0-.2046919515l-144.164854075,83.2336108871,144.164854075,83.2336514925,144.164854075-83.2336514925-144.164854075-83.2336108871h0Z"/><polygon class="uuid-b8c1a4ca-0dd8-4757-bdd4-7adc7f4c053d" points="259.9111075842 409.674595302 259.9552862875 243.4372814487 403.9882539395 326.5939450539 403.9440752362 492.8312589072 259.9111075842 409.674595302"/><path d="m260.0449430677,243.5908511691l143.8101250752,83.0289189356v166.0578378713l-143.8101250752-83.0288783302v-166.0578784767m-.1773644999-.3070582299v166.4672623796l144.164854075,83.2336108871v-166.4672217742l-144.164854075-83.2336514925h0Z"/><polygon class="uuid-a5878eb3-f02b-43fa-9489-d98fa766f081" points="404.1207900493 326.51728201 548.1082796244 243.4372814487 548.1082796244 409.7512583459 404.1207900493 492.8312589072 404.1207900493 326.51728201"/><path d="m548.0199222179,243.5908511691v166.0578784767l-143.8101250752,83.0288783302v-166.0578378713l143.8101250752-83.0289189356m.1773644999-.3070582299l-144.164854075,83.2336514925v166.4672217742l144.164854075-83.2336108871v-166.4672623796h0Z"/><polygon class="uuid-75826f35-0277-4f54-b70e-c3e0f307dc81" points="187.9621911867 368.1342701779 295.9531332115 305.7857758133 403.8557178297 368.1342701779 295.9089545082 430.4567770701 187.9621911867 368.1342701779"/><path d="m295.9086296648,305.9137641154l107.7690739782,62.2204654571-107.7690739782,62.2205060625-107.7687491348-62.2205060625,107.7687491348-62.2204654571m0-.2047325569l-108.1234781345,62.425198014,108.1234781345,62.4252386194,108.123802978-62.4252386194-108.123802978-62.425198014h0Z"/><polygon class="uuid-846e63f2-8259-4d5d-b5b2-25d07de3d527" points="187.8296550769 492.9079219511 187.8738337802 368.2875962658 295.8647758049 430.6360906304 295.8205971017 555.2570660025 187.8296550769 492.9079219511"/><path d="m187.9625160302,368.4412878024l107.7687491348,62.2205466679v124.441012125l-107.7687491348-62.2205466679v-124.441012125m-.1773644999-.3070582299v124.8504366333l108.1234781345,62.4252386194v-124.8504366334l-108.1234781345-62.4252386194h0Z"/><polygon class="uuid-5d35c1dc-54c8-4244-a6d6-a019031e6338" points="295.9973119148 430.5594275865 403.9440752362 368.2875962658 403.9440752362 492.984584995 295.9973119148 555.2570660025 295.9973119148 430.5594275865"/><path d="m403.8550681429,368.4412878024v124.441012125l-107.7690739782,62.2205466679v-124.441012125l107.7690739782-62.2205466679m.1773644999-.3070582299l-108.123802978,62.4252386194v124.8504366334l108.123802978-62.4252386194v-124.8504366333h0Z"/><polygon class="uuid-5414f45d-5846-4d44-b6ee-690c8c35d9b3" points="404.2091474558 368.1342701779 512.2000894806 305.7857758133 620.1026740988 368.1342701779 512.1559107773 430.4567770701 404.2091474558 368.1342701779"/><path d="m512.1559107773,305.9137641154l107.7690739782,62.2204654571-107.7690739782,62.2205060625-107.7687491348-62.2205060625,107.7687491348-62.2204654571m0-.2047325569l-108.1234781346,62.425198014,108.1234781346,62.4252386194,108.123802978-62.4252386194-108.123802978-62.425198014h0Z"/><polygon class="uuid-5905494d-df6e-40b0-8da5-df9942cc2457" points="404.076611346 492.9079219511 404.1207900493 368.2875962658 512.111732074 430.6360906304 512.0675533708 555.2570660025 404.076611346 492.9079219511"/><path d="m404.2097971427,368.4412878024l107.7687491348,62.2205466679v124.441012125l-107.7687491348-62.2205466679v-124.441012125m-.1773644999-.3070582299v124.8504366333l108.1234781346,62.4252386194v-124.8504366334l-108.1234781346-62.4252386194h0Z"/><polygon class="uuid-f29dcbee-f1e6-4fb5-89c8-89295e40ac9a" points="512.2442681839 430.5594275865 620.1910315053 368.2875962658 620.1910315053 492.984584995 512.2442681839 555.2570660025 512.2442681839 430.5594275865"/><path d="m620.1023492554,368.4412878024v124.441012125l-107.7690739782,62.2205466679v-124.441012125l107.7690739782-62.2205466679m.1773644999-.3070582299l-108.123802978,62.4252386194v124.8504366334l108.123802978-62.4252386194v-124.8504366333h0Z"/></g></svg>