<?xml version="1.0" encoding="UTF-8"?><svg id="uuid-2d106c3c-eecf-491f-9a6c-052cf3f765b7" xmlns="http://www.w3.org/2000/svg" viewBox="0 0 742.4750834118 857.3363785488"><defs><style>.uuid-7f30839d-2ef4-4eb1-a03c-321fa9065441{fill:#825539;}.uuid-dc361b1a-9daa-48ad-b6dd-1e7aac4e436f{fill:#334b3b;}.uuid-fffec411-2e87-4af7-b8c3-430f23f71be6{fill:#314f45;}.uuid-d6429845-8bdc-4dc1-9553-a68611d9066c{fill:#417954;}.uuid-c81bad16-9632-4f44-b761-0f736d9ca0eb{fill:#375337;}.uuid-0cb49122-809f-4f04-8a15-155b83896a9d{fill:#191d1b;}.uuid-03bef11c-f161-49f6-aa55-e8531daa6bb8{fill:#3d6d4c;}.uuid-dbf7e34a-f998-4b44-a2ad-0a984ec7e551{fill:#462918;}.uuid-6b36bf22-7746-4c3b-b166-95fa612c75fc{fill:#529054;}.uuid-cfa665aa-c441-4000-9b6f-38ecb0f7265f{fill:#2f4b41;}.uuid-a69779ab-ba43-48bc-bfb6-19901ff0ec68{fill:#633722;}.uuid-4f89c652-01b9-4fb3-91e7-b59fc53e75c9{fill:#4c814d;}</style></defs><g id="uuid-1c352153-07f5-48d3-9ea8-77722bd7ea25"><path d="m371.2375417059,43.239843057l333.7908931893,192.7142238655v385.4282040984l-333.7908931893,192.7142441682L37.4466485166,621.3822710209V235.9540669225L371.2375417059,43.239843057m0-6.5879257954l-2.8524499516,1.6470169786L34.5938737215,231.0131581057l-2.8524499516,1.6469966759v392.0160283802l2.8524499516,1.6470372813,333.7912180327,192.7142441682,2.8524499516,1.6469560705,2.8524499516-1.6469560705,333.7912180327-192.7142441682,2.8524499516-1.6470372813V232.6601547816l-2.8524499516-1.6469966759L374.0899916575,38.2989342402l-2.8524499516-1.6470169786h0Z"/><polygon class="uuid-03bef11c-f161-49f6-aa55-e8531daa6bb8" points="369.9732511682 816.2869342784 36.1823579788 623.5729337428 36.1823579788 619.1914458772 369.9732511682 426.4774453416 372.5018322436 426.4774453416 706.292725433 619.1914458772 706.292725433 623.5729337428 372.5018322436 816.2869342784 369.9732511682 816.2869342784"/><path d="m371.2375417059,428.668148669l333.7908931893,192.7142035627-166.8954465947,96.3570814787-166.8954465947,96.3571626895-166.8954465947-96.3571626895-166.8954465947-96.3570814787,333.7908931894-192.7142035627m2.5295556057-4.381528471h-5.0591112113L34.9170929109,617.0007831553v8.7631381528l166.8954465947,96.3570002678,166.8954465947,96.3571626895h5.0591112113l166.8954465947-96.3571626895,166.8954465947-96.3570002678v-8.7631381528l-333.7908931894-192.7141629573h0Z"/><polygon points="294.8993412011 658.1258771951 294.8993412011 434.9188261004 371.2375417059 478.9916304208 447.5757422107 434.9188261004 447.5757422107 658.1258771951 371.2375417059 702.1993312023 294.8993412011 658.1258771951"/><polygon points="366.982093082 495.4410508342 366.982093082 365.6778043387 479.3610198404 300.796181091 591.7399465989 365.6778043387 591.7399465989 495.4410508342 479.3610198404 560.3233237688 366.982093082 495.4410508342"/><polygon points="150.7351368129 495.4410508342 150.7351368129 365.6778043387 263.1140635714 300.796181091 375.4929903298 365.6778043387 375.4929903298 495.4410508342 263.1140635714 560.3233237688 150.7351368129 495.4410508342"/><polygon points="222.8165893202 412.2077241851 222.8165893202 240.8274895216 371.2375417059 155.1370473465 519.657194718 240.8274895216 519.657194718 412.2077241851 371.2375417059 497.8975166735 222.8165893202 412.2077241851"/><polygon class="uuid-dbf7e34a-f998-4b44-a2ad-0a984ec7e551" points="299.3315046381 442.2882236181 371.1491842994 400.8245615379 371.1491842994 483.7512360114 299.3315046381 442.2882236181"/><path d="m371.060177206,400.9782530746v82.6194944273l-71.5503335378-41.3097675164,71.5503335378-41.3097269109m.1773644999-.3070582299l-72.0824270375,41.6167851408,72.0824270375,41.6168257463v-83.2336108871h0Z"/><polygon class="uuid-dbf7e34a-f998-4b44-a2ad-0a984ec7e551" points="371.3258991124 400.8245615379 443.1435787737 442.2882236181 371.3258991124 483.7512360114 371.3258991124 400.8245615379"/><path d="m371.4149062058,400.9782530746l71.5503335378,41.3097269109-71.5503335378,41.3097675164v-82.6194944273m-.1773644999-.3070582299v83.2336108871l72.0824270375-41.6168257463-72.0824270375-41.6167851408h0Z"/><polygon class="uuid-7f30839d-2ef4-4eb1-a03c-321fa9065441" points="299.1989685283 655.5920986252 299.2431472315 442.4415497059 371.1933630026 483.9812251431 371.1491842994 697.133073436 299.1989685283 655.5920986252"/><path d="m299.3324791683,442.5950382154l71.7276980377,41.4120931894v212.9719662566l-71.7276980377-41.4120119785v-212.9720474674m-.1773644999-.3070582299v213.3814313704l72.0824270375,41.6167445354v-213.3813907649l-72.0824270375-41.6167851408h0Z"/><polygon class="uuid-a69779ab-ba43-48bc-bfb6-19901ff0ec68" points="371.3258991124 483.9045620992 443.2319361803 442.4415497059 443.2319361803 655.6687616691 371.3258991124 697.133073436 371.3258991124 483.9045620992"/><path d="m443.1426042435,442.5950382154v212.9720474674l-71.7276980377,41.4120119785v-212.9719662566l71.7276980377-41.4120931894m.1773644999-.3070582299l-72.0824270375,41.6167851408v213.3813907649l72.0824270375-41.6167445354v-213.3814313704h0Z"/><polygon class="uuid-03bef11c-f161-49f6-aa55-e8531daa6bb8" points="227.2487527572 243.2839553609 371.2817204092 160.1266420689 515.225031281 243.2839553609 371.2375417059 326.4146314936 227.2487527572 243.2839553609"/><path d="m371.2375417059,160.2548740035l143.8101250752,83.0289189356-143.8101250752,83.0289595411-143.8101250752-83.0289595411,143.8101250752-83.0289189356m0-.2046919515l-144.164854075,83.2336108871,144.164854075,83.2336514925,144.164854075-83.2336514925-144.164854075-83.2336108871h0Z"/><polygon class="uuid-d6429845-8bdc-4dc1-9553-a68611d9066c" points="227.1162166474 409.674595302 227.1603953506 243.4372814487 371.1933630026 326.5939450539 371.1491842994 492.8312589072 227.1162166474 409.674595302"/><path d="m227.2500521308,243.5908511691l143.8101250752,83.0289189356v166.0578378713l-143.8101250752-83.0288783302v-166.0578784767m-.1773644999-.3070582299v166.4672623796l144.164854075,83.2336108871v-166.4672217742l-144.164854075-83.2336514925h0Z"/><polygon class="uuid-dc361b1a-9daa-48ad-b6dd-1e7aac4e436f" points="371.3258991124 326.51728201 515.3133886876 243.4372814487 515.3133886876 409.7512583459 371.3258991124 492.8312589072 371.3258991124 326.51728201"/><path d="m515.225031281,243.5908511691v166.0578784767l-143.8101250752,83.0288783302v-166.0578378713l143.8101250752-83.0289189356m.1773644999-.3070582299l-144.164854075,83.2336514925v166.4672217742l144.164854075-83.2336108871v-166.4672623796h0Z"/><polygon class="uuid-4f89c652-01b9-4fb3-91e7-b59fc53e75c9" points="155.1673002499 368.1342701779 263.1582422746 305.7857758133 371.0608268928 368.1342701779 263.1140635714 430.4567770701 155.1673002499 368.1342701779"/><path d="m263.1137387279,305.9137641154l107.7690739782,62.2204654571-107.7690739782,62.2205060625-107.7687491348-62.2205060625,107.7687491348-62.2204654571m0-.2047325569l-108.1234781345,62.425198014,108.1234781345,62.4252386194,108.123802978-62.4252386194-108.123802978-62.425198014h0Z"/><polygon class="uuid-6b36bf22-7746-4c3b-b166-95fa612c75fc" points="155.0347641401 492.9079219511 155.0789428434 368.2875962658 263.0698848681 430.6360906304 263.0257061648 555.2570660025 155.0347641401 492.9079219511"/><path d="m155.1676250933,368.4412878024l107.7687491348,62.2205466679v124.441012125l-107.7687491348-62.2205466679v-124.441012125m-.1773644999-.3070582299v124.8504366333l108.1234781345,62.4252386194v-124.8504366334l-108.1234781345-62.4252386194h0Z"/><polygon class="uuid-c81bad16-9632-4f44-b761-0f736d9ca0eb" points="263.2024209779 430.5594275865 371.1491842994 368.2875962658 371.1491842994 492.984584995 263.2024209779 555.2570660025 263.2024209779 430.5594275865"/><path d="m371.060177206,368.4412878024v124.441012125l-107.7690739782,62.2205466679v-124.441012125l107.7690739782-62.2205466679m.1773644999-.3070582299l-108.123802978,62.4252386194v124.8504366334l108.123802978-62.4252386194v-124.8504366333h0Z"/><polygon class="uuid-cfa665aa-c441-4000-9b6f-38ecb0f7265f" points="371.414256519 368.1342701779 479.4051985437 305.7857758133 587.3077831619 368.1342701779 479.3610198404 430.4567770701 371.414256519 368.1342701779"/><path d="m479.3610198404,305.9137641154l107.7690739782,62.2204654571-107.7690739782,62.2205060625-107.7687491348-62.2205060625,107.7687491348-62.2204654571m0-.2047325569l-108.1234781345,62.425198014,108.1234781345,62.4252386194,108.123802978-62.4252386194-108.123802978-62.425198014h0Z"/><polygon class="uuid-fffec411-2e87-4af7-b8c3-430f23f71be6" points="371.2817204092 492.9079219511 371.3258991124 368.2875962658 479.3168411372 430.6360906304 479.2726624339 555.2570660025 371.2817204092 492.9079219511"/><path d="m371.4149062058,368.4412878024l107.7687491348,62.2205466679v124.441012125l-107.7687491348-62.2205466679v-124.441012125m-.1773644999-.3070582299v124.8504366333l108.1234781345,62.4252386194v-124.8504366334l-108.1234781345-62.4252386194h0Z"/><polygon class="uuid-0cb49122-809f-4f04-8a15-155b83896a9d" points="479.449377247 430.5594275865 587.3961405685 368.2875962658 587.3961405685 492.984584995 479.449377247 555.2570660025 479.449377247 430.5594275865"/><path d="m587.3074583185,368.4412878024v124.441012125l-107.7690739782,62.2205466679v-124.441012125l107.7690739782-62.2205466679m.1773644999-.3070582299l-108.123802978,62.4252386194v124.8504366334l108.123802978-62.4252386194v-124.8504366333h0Z"/></g></svg>