<?xml version="1.0" encoding="UTF-8" standalone="no"?>
<svg
   xmlns:dc="http://purl.org/dc/elements/1.1/"
   xmlns:cc="http://creativecommons.org/ns#"
   xmlns:rdf="http://www.w3.org/1999/02/22-rdf-syntax-ns#"
   xmlns:svg="http://www.w3.org/2000/svg"
   xmlns="http://www.w3.org/2000/svg"
   xmlns:sodipodi="http://sodipodi.sourceforge.net/DTD/sodipodi-0.dtd"
   xmlns:inkscape="http://www.inkscape.org/namespaces/inkscape"
   version="1.1"
   id="Layer_1"
   x="0px"
   y="0px"
   viewBox="0 0 300 300"
   enable-background="new 0 0 400 400"
   xml:space="preserve"
   sodipodi:docname="allo2_white_bg_no_text.svg"
   inkscape:version="1.0.2 (e86c870879, 2021-01-15, custom)"
   width="300"
   height="300"
   inkscape:export-filename="C:\Users\bfran\Programming\allometric\man\figures\allo2_white_bg_no_text.png"
   inkscape:export-xdpi="300"
   inkscape:export-ydpi="300"><metadata
   id="metadata316"><rdf:RDF><cc:Work
       rdf:about=""><dc:format>image/svg+xml</dc:format><dc:type
         rdf:resource="http://purl.org/dc/dcmitype/StillImage" /><dc:title /></cc:Work></rdf:RDF></metadata><defs
   id="defs314"><clipPath
     clipPathUnits="userSpaceOnUse"
     id="clipPath320"><rect
       style="fill:none;stroke:#000000;stroke-width:4.0252"
       id="rect322"
       width="300"
       height="300"
       x="49.028481"
       y="10.749366" /></clipPath><clipPath
     clipPathUnits="userSpaceOnUse"
     id="clipPath324"><rect
       style="fill:none;stroke:#000000;stroke-width:4.0252"
       id="rect326"
       width="300"
       height="300"
       x="49.028481"
       y="10.749366" /></clipPath><clipPath
     clipPathUnits="userSpaceOnUse"
     id="clipPath328"><rect
       style="fill:none;stroke:#000000;stroke-width:4.0252"
       id="rect330"
       width="300"
       height="300"
       x="49.028481"
       y="10.749366" /></clipPath><clipPath
     clipPathUnits="userSpaceOnUse"
     id="clipPath332"><rect
       style="fill:none;stroke:#000000;stroke-width:4.0252"
       id="rect334"
       width="300"
       height="300"
       x="49.028481"
       y="10.749366" /></clipPath><clipPath
     clipPathUnits="userSpaceOnUse"
     id="clipPath336"><rect
       style="fill:none;stroke:#000000;stroke-width:4.0252"
       id="rect338"
       width="300"
       height="300"
       x="49.028481"
       y="10.749366" /></clipPath><clipPath
     clipPathUnits="userSpaceOnUse"
     id="clipPath340"><rect
       style="fill:none;stroke:#000000;stroke-width:4.0252"
       id="rect342"
       width="300"
       height="300"
       x="49.028481"
       y="10.749366" /></clipPath><clipPath
     clipPathUnits="userSpaceOnUse"
     id="clipPath344"><rect
       style="fill:none;stroke:#000000;stroke-width:4.0252"
       id="rect346"
       width="300"
       height="300"
       x="49.028481"
       y="10.749366" /></clipPath><clipPath
     clipPathUnits="userSpaceOnUse"
     id="clipPath348"><rect
       style="fill:none;stroke:#000000;stroke-width:4.0252"
       id="rect350"
       width="300"
       height="300"
       x="49.028481"
       y="10.749366" /></clipPath><clipPath
     clipPathUnits="userSpaceOnUse"
     id="clipPath352"><rect
       style="fill:none;stroke:#000000;stroke-width:4.0252"
       id="rect354"
       width="300"
       height="300"
       x="49.028481"
       y="10.749366" /></clipPath><clipPath
     clipPathUnits="userSpaceOnUse"
     id="clipPath356"><rect
       style="fill:none;stroke:#000000;stroke-width:4.0252"
       id="rect358"
       width="300"
       height="300"
       x="49.028481"
       y="10.749366" /></clipPath><clipPath
     clipPathUnits="userSpaceOnUse"
     id="clipPath360"><rect
       style="fill:none;stroke:#000000;stroke-width:4.0252"
       id="rect362"
       width="300"
       height="300"
       x="49.028481"
       y="10.749366" /></clipPath><clipPath
     clipPathUnits="userSpaceOnUse"
     id="clipPath364"><rect
       style="fill:none;stroke:#000000;stroke-width:4.0252"
       id="rect366"
       width="300"
       height="300"
       x="49.028481"
       y="10.749366" /></clipPath><clipPath
     clipPathUnits="userSpaceOnUse"
     id="clipPath368"><rect
       style="fill:none;stroke:#000000;stroke-width:4.0252"
       id="rect370"
       width="300"
       height="300"
       x="49.028481"
       y="10.749366" /></clipPath><clipPath
     clipPathUnits="userSpaceOnUse"
     id="clipPath372"><rect
       style="fill:none;stroke:#000000;stroke-width:4.0252"
       id="rect374"
       width="300"
       height="300"
       x="49.028481"
       y="10.749366" /></clipPath><clipPath
     clipPathUnits="userSpaceOnUse"
     id="clipPath376"><rect
       style="fill:none;stroke:#000000;stroke-width:4.0252"
       id="rect378"
       width="300"
       height="300"
       x="49.028481"
       y="10.749366" /></clipPath><clipPath
     clipPathUnits="userSpaceOnUse"
     id="clipPath380"><rect
       style="fill:none;stroke:#000000;stroke-width:4.0252"
       id="rect382"
       width="300"
       height="300"
       x="49.028481"
       y="10.749366" /></clipPath><clipPath
     clipPathUnits="userSpaceOnUse"
     id="clipPath384"><rect
       style="fill:none;stroke:#000000;stroke-width:4.0252"
       id="rect386"
       width="300"
       height="300"
       x="49.028481"
       y="10.749366" /></clipPath><clipPath
     clipPathUnits="userSpaceOnUse"
     id="clipPath388"><rect
       style="fill:none;stroke:#000000;stroke-width:4.0252"
       id="rect390"
       width="300"
       height="300"
       x="49.028481"
       y="10.749366" /></clipPath><clipPath
     clipPathUnits="userSpaceOnUse"
     id="clipPath392"><rect
       style="fill:none;stroke:#000000;stroke-width:4.0252"
       id="rect394"
       width="300"
       height="300"
       x="49.028481"
       y="10.749366" /></clipPath><clipPath
     clipPathUnits="userSpaceOnUse"
     id="clipPath396"><rect
       style="fill:none;stroke:#000000;stroke-width:4.0252"
       id="rect398"
       width="300"
       height="300"
       x="49.028481"
       y="10.749366" /></clipPath><clipPath
     clipPathUnits="userSpaceOnUse"
     id="clipPath400"><rect
       style="fill:none;stroke:#000000;stroke-width:4.0252"
       id="rect402"
       width="300"
       height="300"
       x="49.028481"
       y="10.749366" /></clipPath></defs><sodipodi:namedview
   pagecolor="#ffffff"
   bordercolor="#666666"
   borderopacity="1"
   objecttolerance="10"
   gridtolerance="10"
   guidetolerance="10"
   inkscape:pageopacity="1"
   inkscape:pageshadow="2"
   inkscape:window-width="1920"
   inkscape:window-height="1009"
   id="namedview312"
   showgrid="false"
   inkscape:zoom="1.0525"
   inkscape:cx="-4.0403422"
   inkscape:cy="247.14227"
   inkscape:window-x="-8"
   inkscape:window-y="-8"
   inkscape:window-maximized="1"
   inkscape:current-layer="Layer_1"
   inkscape:document-rotation="0" />
	 <style
   type="text/css"
   id="style2">
	 	#changecolor{
	 		fill: #000;
	 	}

			 @media (prefers-color-scheme: dark) {
		#changecolor{
			fill: #fff !important;
		}
	 }

	 </style>
<g
   id="g10"
   clip-path="url(#clipPath400)"
   transform="translate(-50.356295,-14.251781)">
	<g
   id="g8">
		<g
   id="g6">
			<polygon
   fill="#3d6d4c"
   points="199.468,159.701 200.395,159.701 322.8,230.372 322.8,231.979 200.395,302.65 199.468,302.65 77.062,231.979 77.062,230.372 "
   id="polygon4" />
		</g>
	</g>
</g>
<g
   id="g16"
   clip-path="url(#clipPath396)"
   transform="translate(-50.356295,-14.251781)">
	<g
   id="g14">
		<path
   fill="none"
   stroke="#000000"
   stroke-width="1.433"
   stroke-miterlimit="10"
   d="M 199.931,160.505"
   id="path12" />
	</g>
</g>
<g
   id="g22"
   clip-path="url(#clipPath392)">
	<g
   id="g20">
		<path
   fill="none"
   stroke="#000000"
   stroke-width="1.433"
   stroke-miterlimit="10"
   d="M 199.931,3.307"
   id="path18" />
	</g>
</g>
<g
   id="g28"
   clip-path="url(#clipPath388)"
   transform="translate(-50.356295,-14.251781)">
	<g
   id="g26">
		<path
   fill="none"
   stroke="#000000"
   stroke-width="1.433"
   stroke-miterlimit="10"
   d="M 199.931,160.505"
   id="path24" />
	</g>
</g>
<g
   id="g34"
   clip-path="url(#clipPath384)"
   transform="translate(-50.356295,-14.251781)">
	<g
   id="g32">
		<path
   fill="none"
   stroke="#000000"
   stroke-width="1.433"
   stroke-miterlimit="10"
   d="M 63.794,239.104"
   id="path30" />
	</g>
</g>
<g
   id="g40"
   clip-path="url(#clipPath380)"
   transform="translate(-50.356295,-14.251781)">
	<g
   id="g38">
		<path
   fill="none"
   stroke="#000000"
   stroke-width="1.433"
   stroke-miterlimit="10"
   d="M 199.931,160.505"
   id="path36" />
	</g>
</g>
<g
   id="g46"
   clip-path="url(#clipPath376)"
   transform="translate(-50.356295,-14.251781)">
	<g
   id="g44">
		<path
   fill="none"
   stroke="#000000"
   stroke-width="1.433"
   stroke-miterlimit="10"
   d="M 336.069,239.104"
   id="path42" />
	</g>
</g>
<g
   id="changecolor"
   clip-path="url(#clipPath372)"
   transform="translate(-50.356295,-14.251781)">
	<path
   d="m 51.767,369.81 c 0,-7.719 6.148,-10.042 13.389,-10.998 6.558,-0.82 8.88,-1.503 8.88,-3.894 0,-2.254 -1.434,-3.757 -4.782,-3.757 -3.552,0 -5.328,1.571 -5.67,4.508 H 53.338 c 0.274,-6.489 5.26,-12.023 15.848,-12.023 5.26,0 8.812,0.956 11.339,2.869 3.006,2.186 4.44,5.602 4.44,9.974 v 17.624 c 0,2.801 0.273,4.372 1.229,4.987 v 0.478 H 75.403 c -0.546,-0.751 -0.888,-2.118 -1.161,-3.893 h -0.136 c -2.049,2.937 -5.123,4.782 -10.383,4.782 -6.969,-10e-4 -11.956,-3.758 -11.956,-10.657 z m 22.543,-2.733 v -4.167 c -1.435,0.751 -3.484,1.298 -5.738,1.845 -4.304,0.956 -6.08,2.049 -6.08,4.714 0,2.801 2.049,3.893 4.782,3.893 4.167,0 7.036,-2.528 7.036,-6.285 z"
   id="path48" />
	<path
   d="m 89.064,330.736 h 11.271 v 48.842 H 89.064 Z"
   id="path50" />
	<path
   d="m 104.434,330.736 h 11.271 v 48.842 h -11.271 z"
   id="path52" />
	<path
   d="m 118.164,362.159 c 0,-10.52 7.514,-18.512 18.717,-18.512 11.271,0 18.649,7.992 18.649,18.512 0,10.52 -7.378,18.512 -18.649,18.512 -11.203,0 -18.717,-7.992 -18.717,-18.512 z m 26.094,0 c 0,-6.353 -2.596,-10.656 -7.446,-10.656 -4.85,0 -7.378,4.304 -7.378,10.656 0,6.353 2.527,10.588 7.378,10.588 4.85,0 7.446,-4.235 7.446,-10.588 z"
   id="path54" />
	<path
   d="m 157.92,344.603 h 10.656 v 4.987 h 0.205 c 2.186,-3.62 5.534,-6.011 10.588,-6.011 4.577,0 8.061,2.391 9.837,6.148 h 0.137 c 2.732,-4.235 6.489,-6.148 10.998,-6.148 7.924,0 11.886,5.396 11.886,13.252 v 22.747 h -11.135 v -20.766 c 0,-3.757 -1.571,-5.943 -4.918,-5.943 -3.552,0 -5.534,2.938 -5.534,7.105 v 19.605 h -11.134 v -20.766 c 0,-3.757 -1.571,-5.943 -4.918,-5.943 -3.484,0 -5.533,2.938 -5.533,7.105 V 379.58 H 157.92 Z"
   id="path56" />
	<path
   d="m 214.344,362.023 c 0,-10.451 7.309,-18.444 17.965,-18.444 4.987,0 8.949,1.639 11.954,4.372 4.167,3.825 6.216,9.905 6.148,17.009 h -25.138 c 0.683,4.714 3.279,7.651 7.856,7.651 2.937,0 4.85,-1.297 5.806,-3.484 h 10.861 c -0.751,3.143 -2.8,6.148 -5.875,8.266 -2.937,2.049 -6.489,3.21 -10.929,3.21 -11.544,0 -18.648,-7.993 -18.648,-18.58 z m 24.796,-3.689 c -0.41,-4.167 -3.006,-6.831 -6.626,-6.831 -4.235,0 -6.421,2.664 -7.172,6.831 z"
   id="path58" />
	<path
   d="m 254.852,370.356 v -18.785 h -4.645 v -6.968 h 4.645 v -11.066 h 10.862 v 11.066 h 6.353 v 6.968 h -6.353 v 16.394 c 0,2.732 1.502,3.416 3.893,3.416 0.956,0 2.049,-0.068 2.459,-0.068 v 8.129 c -0.956,0.273 -3.074,0.547 -6.08,0.547 -6.488,-10e-4 -11.134,-2.119 -11.134,-9.633 z"
   id="path60" />
	<path
   d="m 274.731,344.603 h 10.656 v 5.465 h 0.205 c 2.459,-4.167 5.328,-6.012 9.563,-6.012 1.025,0 1.708,0.068 2.186,0.274 v 9.563 h -0.273 c -6.831,-0.956 -11.203,2.391 -11.203,9.973 v 15.712 H 274.73 v -34.975 z"
   id="path62" />
	<g
   id="g66">
		<path
   d="m 299.527,330.736 h 11.135 v 9.017 h -11.135 z m 0,13.867 h 11.135 v 34.975 h -11.135 z"
   id="path64" />
	</g>
	<g
   id="g70">
		<path
   d="m 313.053,362.159 c 0,-10.52 7.241,-18.512 18.307,-18.512 9.495,0 15.575,5.533 16.599,13.389 h -10.725 c -0.683,-3.142 -2.596,-5.191 -5.738,-5.191 -4.782,0 -7.173,3.962 -7.173,10.315 0,6.216 2.391,10.178 7.173,10.178 3.484,0 5.601,-2.049 6.08,-6.012 h 10.656 c -0.273,8.061 -6.694,14.345 -16.599,14.345 -11.271,0 -18.58,-7.992 -18.58,-18.512 z"
   id="path68" />
	</g>
	<path
   d="M 323.383,88.022 200.977,17.351 199.931,16.747 198.885,17.351 76.48,88.022 75.434,88.626 v 1.208 141.341 1.208 l 1.046,0.604 122.406,70.671 1.046,0.604 1.046,-0.604 122.406,-70.671 1.046,-0.604 V 231.175 89.834 88.626 Z M 199.931,301.846 77.526,231.176 199.931,160.505 322.336,231.176 Z M 322.337,229.033 200.859,158.898 h -1.855 L 77.526,229.033 V 89.834 L 199.931,19.163 322.336,89.834 v 139.199 z"
   id="path72" />
	<polygon
   points="145.503,91.621 145.503,122.144 119.07,137.405 119.07,184.991 160.281,208.784 171.937,202.055 171.937,244.65 199.931,260.812 227.926,244.65 227.926,202.055 239.582,208.784 280.792,184.991 280.792,137.405 254.359,122.144 254.359,91.621 199.931,60.197 "
   id="polygon74" />
</g>
<g
   id="g93"
   clip-path="url(#clipPath368)"
   transform="translate(-50.356295,-14.251781)">
	<g
   id="g83">
		<g
   id="g81">
			<g
   id="g79">
				<polygon
   fill="#462918"
   points="173.563,165.499 199.899,150.294 199.899,180.704 "
   id="polygon77" />
			</g>
		</g>
	</g>
	<g
   id="g91">
		<g
   id="g89">
			<g
   id="g87">
				<path
   d="m 199.866,150.351 v 30.298 L 173.628,165.5 199.866,150.351 m 0.065,-0.113 -26.434,15.261 26.434,15.261 z"
   id="path85" />
			</g>
		</g>
	</g>
</g>
<g
   id="g111"
   clip-path="url(#clipPath364)"
   transform="translate(-50.356295,-14.251781)">
	<g
   id="g101">
		<g
   id="g99">
			<g
   id="g97">
				<polygon
   fill="#462918"
   points="199.964,150.294 226.3,165.499 199.964,180.704 "
   id="polygon95" />
			</g>
		</g>
	</g>
	<g
   id="g109">
		<g
   id="g107">
			<g
   id="g105">
				<path
   d="m 199.996,150.351 26.238,15.149 -26.238,15.149 v -30.298 m -0.065,-0.113 v 30.523 L 226.365,165.5 Z"
   id="path103" />
			</g>
		</g>
	</g>
</g>
<g
   id="g129"
   clip-path="url(#clipPath360)"
   transform="translate(-50.356295,-14.251781)">
	<g
   id="g119">
		<g
   id="g117">
			<g
   id="g115">
				<polygon
   fill="#825539"
   points="199.899,258.954 173.514,243.721 173.53,165.556 199.915,180.789 "
   id="polygon113" />
			</g>
		</g>
	</g>
	<g
   id="g127">
		<g
   id="g125">
			<g
   id="g123">
				<path
   d="m 173.563,165.612 26.303,15.186 v 78.1 l -26.303,-15.186 v -78.1 m -0.065,-0.113 v 78.25 l 26.434,15.261 v -78.25 z"
   id="path121" />
			</g>
		</g>
	</g>
</g>
<g
   id="g147"
   clip-path="url(#clipPath356)"
   transform="translate(-50.356295,-14.251781)">
	<g
   id="g137">
		<g
   id="g135">
			<g
   id="g133">
				<polygon
   fill="#633722"
   points="199.964,258.954 199.964,180.761 226.333,165.556 226.333,243.749 "
   id="polygon131" />
			</g>
		</g>
	</g>
	<g
   id="g145">
		<g
   id="g143">
			<g
   id="g141">
				<path
   d="m 226.3,165.612 v 78.1 l -26.303,15.186 v -78.1 L 226.3,165.612 m 0.065,-0.113 -26.434,15.261 v 78.25 l 26.434,-15.261 z"
   id="path139" />
			</g>
		</g>
	</g>
</g>
<g
   id="g165"
   clip-path="url(#clipPath352)"
   transform="translate(-50.356295,-14.251781)">
	<g
   id="g155">
		<g
   id="g153">
			<g
   id="g151">
				<polygon
   fill="#3d6d4c"
   points="199.931,123.007 147.129,92.522 199.948,62.027 252.733,92.522 "
   id="polygon149" />
			</g>
		</g>
	</g>
	<g
   id="g163">
		<g
   id="g161">
			<g
   id="g159">
				<path
   d="m 199.931,62.074 52.737,30.448 -52.737,30.448 -52.737,-30.448 52.737,-30.448 m 0,-0.075 -52.867,30.523 52.867,30.523 52.867,-30.523 z"
   id="path157" />
			</g>
		</g>
	</g>
</g>
<g
   id="g183"
   clip-path="url(#clipPath348)"
   transform="translate(-50.356295,-14.251781)">
	<g
   id="g173">
		<g
   id="g171">
			<g
   id="g169">
				<polygon
   fill="#417954"
   points="199.899,184.034 147.08,153.54 147.096,92.578 199.915,123.073 "
   id="polygon167" />
			</g>
		</g>
	</g>
	<g
   id="g181">
		<g
   id="g179">
			<g
   id="g177">
				<path
   d="m 147.129,92.635 52.737,30.448 v 60.896 L 147.129,153.531 V 92.635 m -0.065,-0.113 v 61.046 l 52.867,30.523 v -61.046 z"
   id="path175" />
			</g>
		</g>
	</g>
</g>
<g
   id="g201"
   clip-path="url(#clipPath344)"
   transform="translate(-50.356295,-14.251781)">
	<g
   id="g191">
		<g
   id="g189">
			<g
   id="g187">
				<polygon
   fill="#334b3b"
   points="199.964,184.034 199.964,123.045 252.766,92.578 252.766,153.568 "
   id="polygon185" />
			</g>
		</g>
	</g>
	<g
   id="g199">
		<g
   id="g197">
			<g
   id="g195">
				<path
   d="m 252.733,92.635 v 60.896 l -52.737,30.448 v -60.896 l 52.737,-30.448 m 0.066,-0.113 -52.867,30.523 v 61.046 l 52.867,-30.523 z"
   id="path193" />
			</g>
		</g>
	</g>
</g>
<g
   id="g219"
   clip-path="url(#clipPath340)"
   transform="translate(-50.356295,-14.251781)">
	<g
   id="g209">
		<g
   id="g207">
			<g
   id="g205">
				<polygon
   fill="#4c814d"
   points="160.281,161.161 120.696,138.306 160.297,115.442 199.867,138.306 "
   id="polygon203" />
			</g>
		</g>
	</g>
	<g
   id="g217">
		<g
   id="g215">
			<g
   id="g213">
				<path
   d="m 160.281,115.489 39.52,22.817 -39.52,22.817 -39.52,-22.817 39.52,-22.817 m 0,-0.075 -39.65,22.892 39.65,22.892 39.65,-22.892 z"
   id="path211" />
			</g>
		</g>
	</g>
</g>
<g
   id="g237"
   clip-path="url(#clipPath336)"
   transform="translate(-50.356295,-14.251781)">
	<g
   id="g227">
		<g
   id="g225">
			<g
   id="g223">
				<polygon
   fill="#529054"
   points="160.249,206.927 120.647,184.062 120.663,138.362 160.265,161.226 "
   id="polygon221" />
			</g>
		</g>
	</g>
	<g
   id="g235">
		<g
   id="g233">
			<g
   id="g231">
				<path
   d="m 120.696,138.419 39.52,22.817 v 45.634 l -39.52,-22.817 v -45.634 m -0.065,-0.113 v 45.784 l 39.65,22.892 v -45.784 z"
   id="path229" />
			</g>
		</g>
	</g>
</g>
<g
   id="g255"
   clip-path="url(#clipPath332)"
   transform="translate(-50.356295,-14.251781)">
	<g
   id="g245">
		<g
   id="g243">
			<g
   id="g241">
				<polygon
   fill="#375337"
   points="160.314,206.927 160.314,161.198 199.899,138.362 199.899,184.09 "
   id="polygon239" />
			</g>
		</g>
	</g>
	<g
   id="g253">
		<g
   id="g251">
			<g
   id="g249">
				<path
   d="m 199.866,138.419 v 45.634 l -39.52,22.817 v -45.634 l 39.52,-22.817 m 0.065,-0.113 -39.65,22.892 v 45.784 l 39.65,-22.892 z"
   id="path247" />
			</g>
		</g>
	</g>
</g>
<g
   id="g273"
   clip-path="url(#clipPath328)"
   transform="translate(-50.356295,-14.251781)">
	<g
   id="g263">
		<g
   id="g261">
			<g
   id="g259">
				<polygon
   fill="#2f4b41"
   points="239.582,161.161 199.996,138.306 239.598,115.442 279.167,138.306 "
   id="polygon257" />
			</g>
		</g>
	</g>
	<g
   id="g271">
		<g
   id="g269">
			<g
   id="g267">
				<path
   d="m 239.582,115.489 39.52,22.817 -39.52,22.817 -39.52,-22.817 39.52,-22.817 m 0,-0.075 -39.65,22.892 39.65,22.892 39.65,-22.892 z"
   id="path265" />
			</g>
		</g>
	</g>
</g>
<g
   id="g291"
   clip-path="url(#clipPath324)"
   transform="translate(-50.356295,-14.251781)">
	<g
   id="g281">
		<g
   id="g279">
			<g
   id="g277">
				<polygon
   fill="#314f45"
   points="239.549,206.927 199.948,184.062 199.964,138.362 239.565,161.226 "
   id="polygon275" />
			</g>
		</g>
	</g>
	<g
   id="g289">
		<g
   id="g287">
			<g
   id="g285">
				<path
   d="m 199.996,138.419 39.52,22.817 v 45.634 l -39.52,-22.817 v -45.634 m -0.065,-0.113 v 45.784 l 39.65,22.892 v -45.784 z"
   id="path283" />
			</g>
		</g>
	</g>
</g>
<g
   id="g309"
   clip-path="url(#clipPath320)"
   transform="translate(-50.356295,-14.251781)">
	<g
   id="g299">
		<g
   id="g297">
			<g
   id="g295">
				<polygon
   fill="#191d1b"
   points="239.614,206.927 239.614,161.198 279.2,138.362 279.2,184.09 "
   id="polygon293" />
			</g>
		</g>
	</g>
	<g
   id="g307">
		<g
   id="g305">
			<g
   id="g303">
				<path
   d="m 279.167,138.419 v 45.634 l -39.52,22.817 v -45.634 l 39.52,-22.817 m 0.065,-0.113 -39.65,22.892 v 45.784 l 39.65,-22.892 z"
   id="path301" />
			</g>
		</g>
	</g>
</g>
</svg>
